<svg width="40" height="40" viewBox="0 0 40 40" fill="none" xmlns="http://www.w3.org/2000/svg">
<rect width="40" height="40" rx="8" fill="#208A4C"/>
<path d="M27.6433 12.3585C27.5155 12.2307 27.3535 12.1426 27.1768 12.1048C27.0001 12.0669 26.8162 12.081 26.6472 12.1452L11.0211 18.0597H11.0179C10.8378 18.129 10.6834 18.2522 10.5759 18.4125C10.4684 18.5728 10.4129 18.7624 10.4172 18.9554C10.4215 19.1484 10.4852 19.3354 10.5997 19.4908C10.7143 19.6462 10.8739 19.7625 11.057 19.8237L11.073 19.8288L16.4363 22.119C16.5409 22.1508 16.652 22.1546 16.7585 22.1299C16.8651 22.1053 16.9633 22.0532 17.0433 21.9788L25.6512 13.9581C25.6768 13.9325 25.7073 13.9121 25.7408 13.8982C25.7743 13.8843 25.8102 13.8772 25.8465 13.8772C25.8827 13.8772 25.9187 13.8843 25.9522 13.8982C25.9857 13.9121 26.0161 13.9325 26.0418 13.9581C26.0674 13.9838 26.0878 14.0142 26.1017 14.0477C26.1155 14.0812 26.1227 14.1171 26.1227 14.1534C26.1227 14.1897 26.1155 14.2256 26.1017 14.2591C26.0878 14.2926 26.0674 14.3231 26.0418 14.3487L18.0207 22.9526C17.9463 23.0327 17.8941 23.1309 17.8695 23.2374C17.8449 23.3439 17.8487 23.4551 17.8804 23.5597L20.1715 28.9261C20.1738 28.9339 20.1762 28.9409 20.1789 28.9483C20.3039 29.3104 20.6203 29.5659 21.0027 29.5831H21.0418C21.2348 29.5842 21.4238 29.5272 21.584 29.4195C21.7442 29.3118 21.8683 29.1584 21.9402 28.9792L27.8539 13.3573C27.919 13.1883 27.9338 13.004 27.8965 12.8267C27.8591 12.6495 27.7712 12.4868 27.6433 12.3585Z" fill="white"/>
</svg>
